# xmcd
#
# Track frame offsets: 
#        150
#        7888
#        29511
#        47096
#        69434
#        89176
#        105310
#        120157
#
# Disc length: 2002 seconds
#
# Revision: 0
# Processed by: cddbd v1.5.1PL2 Copyright (c) Steve Scherf et al.
# Submitted via: ExactAudioCopy v0.95b3
#
DISCID=5b07d008
DTITLE=Brother Booze - Brother Booze
DYEAR=1900
DGENRE=Blues
TTITLE0=Soundcheck
TTITLE1=Going Down
TTITLE2=Iceman
TTITLE3=Hit the Road Jack
TTITLE4=Gimme Some Lovin'
TTITLE5=Knock on Wood
TTITLE6=Mustang Sally
TTITLE7=?
EXTD=
EXTT0=
EXTT1=
EXTT2=
EXTT3=
EXTT4=
EXTT5=
EXTT6=
EXTT7=
PLAYORDER=
